<svg version="1.1" id="Goose--Streamline-Noto-Emoji" xmlns="http://www.w3.org/2000/svg" xmlns:xlink="http://www.w3.org/1999/xlink" x="0" y="0" viewBox="0 0 32 32" xml:space="preserve" enable-background="new 0 0 128 128" height="32" width="32">
  <desc>
    Goose Streamline Emoji: https://streamlinehq.com
  </desc>
  <path d="M14.8325 25.925c-0.1125 0.565 -0.57 2.7725 -0.825 3.0675 -0.1975 0.23 -0.795 0.54 -1.35 0.6475 -0.4325 0.0825 -0.8825 0.0575 -1.16 0.2025 -0.3525 0.185 -0.6425 0.575 -0.605 0.9 0.03 0.265 0.6225 0.2925 1.1575 0.3175 1.0625 0.045 2.9675 -0.0525 3.42 -0.1675 0.365 -0.0925 0.655 -0.155 0.6775 -0.585 0.0225 -0.4075 -0.3075 -0.48 -0.3075 -0.855 0 -0.3775 0.76 -3.15 0.76 -3.15l-1.7675 -0.3775z" fill="#FD774D" stroke-width="0.25"></path>
  <path d="M20.485 25.5075s0.71 1.31 0.98 1.98c0.0875 0.2175 0.1675 0.505 0.1575 0.82 -0.0125 0.3625 -0.22 0.7075 -0.6925 0.98 -0.4725 0.2725 -0.9625 0.42 -1.195 0.4525 -0.295 0.0425 -0.435 0.2525 -0.42 0.4725 0.02 0.305 0.295 0.28 0.5575 0.29 0.395 0.0125 1.92 0.015 2.35 -0.145 0.1675 -0.0625 0.84 -0.465 1.285 -0.9775 0.395 -0.4525 0.5775 -1.0125 0.565 -1.19 -0.0425 -0.5575 -0.525 -0.76 -0.735 -0.8725 -0.4525 -0.2425 -1.455 -2.515 -1.455 -2.515l-1.3975 0.705z" fill="#FD774D" stroke-width="0.25"></path>
  <path d="M8.1025 1.55s1.7525 -0.5875 3.2375 0 3.11 2.1725 3.205 4.205c0.095 2.0325 -0.6675 3.1775 -0.6025 4.5425 0.0625 1.365 0.2225 2.2875 0.5075 2.5725s1.0175 0.9225 1.0175 0.9225 2.4875 -0.1525 2.74 -0.1c0.25 0.0525 1.0825 0.475 1.0825 0.475s2.35 1.215 2.64 1.385c0.29 0.1725 2.1525 1.095 2.5075 1.1225s2.1925 0.21 2.8 0.08c0.6075 -0.1325 -1.9975 3.6175 -1.9975 3.6175s-1.835 4.0175 -6.2025 4.5425c-4.3675 0.525 -4.95 -0.145 -5.445 -0.5525 -0.495 -0.4075 -5.0825 -4.8125 -5.1725 -7.8825s2.265 -5.395 2.6525 -7.0325 0.4825 -2.8525 -0.585 -3.35 -1.6525 -0.395 -1.91 -0.4825c-0.2575 -0.085 -1.1 -0.825 -1.1 -0.825l0.625 -3.24z" fill="#F1F6F7" stroke-width="0.25"></path>
  <path d="M7.585 1.7025s1.835 -1.4675 4.6925 -0.0625c1.385 0.68 2.325 2.2275 2.445 4.43 0.095 1.715 -0.53 2.6825 -0.495 4.8175 0.03 1.935 1.355 2.5775 1.355 2.5775s0.7325 -0.2 1.965 -0.0325c0.7025 0.095 1.8475 0.71 1.8075 0.77 -0.025 0.035 -1.2725 -0.3425 -1.8975 -0.3625 -1.265 -0.04 -1.925 0.025 -3.0725 0.4875 -0.51 0.205 -0.87 0.4575 -0.925 0.4125 -0.0675 -0.055 0.0825 -0.275 0.2375 -0.4175 0.35 -0.3225 0.8575 -0.5225 1.01 -0.5975 0.0425 -0.02 -0.3 -0.2975 -0.575 -0.74 -0.255 -0.41 -0.565 -1.0275 -0.545 -2.2225 0.0375 -2.19 0.8925 -3.505 0.455 -5.62 -0.3825 -1.845 -1.6575 -3.415 -3.7475 -3.5975 -1.705 -0.1525 -2.605 0.68 -2.605 0.68l-0.105 -0.5225z" fill="#B4B5B7" stroke-width="0.25"></path>
  <path d="M9.975 2.4625c-0.2925 -0.015 -0.5575 0.2275 -0.575 0.7175 -0.015 0.45 0.26 0.685 0.5425 0.685 0.3225 0 0.5525 -0.315 0.56 -0.6775 0.0075 -0.4475 -0.19 -0.705 -0.5275 -0.725z" fill="#302F2F" stroke-width="0.25"></path>
  <path d="M11.6425 3.8675c0.1275 0.1875 -0.055 0.465 -0.6375 0.8125 -0.63 0.375 -0.93 0.41 -1.0075 0.275 -0.2675 -0.4575 0.1325 -0.8675 0.5425 -1.1025 0.44 -0.2525 0.9225 -0.2525 1.1025 0.015z" fill="#FFFFFF" stroke-width="0.25"></path>
  <path d="M13.0425 16.17c-0.2475 0.74 -0.2725 1.7675 -0.0125 2.2025 0.26 0.4325 0.7475 0.49 0.965 0.21 0.305 -0.3975 0.6875 -1.3925 0.9075 -1.6325 0.22 -0.2375 0.86 -0.6875 2.3 -1.0775 1.44 -0.3925 2.4325 -0.5725 2.5675 -0.61 0.1325 -0.0375 0.2775 -0.21 0.0375 -0.42 -0.2375 -0.21 -1.48 -0.565 -2.025 -0.6025 -0.67 -0.0475 -1.3825 -0.065 -2.0975 0.095 -0.6575 0.1475 -2.33 0.8975 -2.6425 1.835z" fill="#FFFFFF" stroke-width="0.25"></path>
  <path d="M21.745 15.4525c-0.0225 0.04 0.21 0.24 0.675 0.53 0.455 0.285 1.8875 1.0975 2.5375 1.11 0.4975 0.01 1.26 0.02 1.3925 0.05 0.1675 0.0375 0.205 0.1775 0.1675 0.2875 -0.0375 0.1125 -0.44 0.865 -1.04 1.4025 -0.735 0.6575 -1.5775 0.9275 -1.5875 0.975 -0.01 0.0475 0.5375 0.2125 0.6675 0.2325s0.2425 0.13 0.1475 0.27c-0.0925 0.14 -0.8725 0.79 -1.5875 1.105s-1.805 0.735 -2.7925 0.7925c-1.285 0.0725 -2.7475 -0.05 -3.9225 -0.455 -1.1775 -0.405 -2.41 -1.0525 -3.2425 -2.1275 -0.76 -0.98 -0.76 -2.04 -0.7575 -2.5175 0.005 -0.81 0.41 -1.5325 0.48 -1.6575 0.105 -0.1825 0.1475 -0.3325 -0.0725 -0.2675 -0.22 0.065 -0.995 0.605 -1.155 1.8125 -0.1375 1.0225 0.095 1.9925 0.5775 2.76 0.655 1.04 1.695 1.8225 2.96 2.5725 1.17 0.695 1.8475 0.99 2.16 1.14 0.31 0.15 0.6825 0.5325 0.11 0.985s-2.515 0.245 -3.2675 -0.215c-0.7525 -0.4625 -2.3375 -1.71 -3.775 -3.79 -1.02 -1.4775 -1.735 -2.9925 -1.735 -4.4725 0 -1.445 0.7775 -2.7375 1.505 -4.1475 0.77 -1.4875 1.8575 -3.48 1.19 -4.9875 -0.4925 -1.115 -1.945 -1.0825 -2.57 -1.255 -0.6325 -0.175 -1.165 -0.5875 -1.165 -0.5875l-0.21 0.685s0.84 0.26 1.31 0.3775c0.805 0.1975 1.79 0.1725 2.1075 0.915 0.395 0.92 0.1725 2.025 -1.02 4.35 -1.0825 2.125 -1.7625 3.265 -1.7475 4.725 0.0175 1.8575 0.83 3.6575 2.4725 5.755s2.2 2.375 2.4025 2.6275 0.65 1.415 1.1875 1.92c0.95 0.89 2.0625 0.915 2.67 0.6875s1.145 -1.09 1.145 -1.09 1.3025 0.1375 2.035 0.035c0.7325 -0.1 2.1725 -0.335 3.695 -1.6775 1.4525 -1.28 2.2825 -3.66 2.2825 -3.66s2.1125 -3.2775 2.315 -3.9325 -0.3525 -0.5825 -0.68 -0.505c-0.205 0.0475 -1.405 0.275 -2.5375 0.3475 -0.505 0.0325 -3.3125 -1.1325 -3.3275 -1.105z" fill="#B4B5B7" stroke-width="0.25"></path>
  <path d="M8.2875 3.4625s0.0025 -0.9325 -0.045 -1.3325c-0.055 -0.475 -0.1525 -0.6 -0.34 -0.68 -0.2275 -0.0975 -0.7625 0 -1 0.5875 -0.1725 0.42 -0.5125 1.0425 -0.595 1.1375 -0.0825 0.095 -0.4675 0.2225 -1.025 0.3625 -0.6675 0.1675 -1.0325 0.235 -1.245 0.4025 -0.2825 0.22 -0.45 0.685 -0.35 1.0025 0.065 0.205 0.525 0.2575 1.14 0.3475 0.6525 0.095 2.72 0.4975 2.925 0.46s0.94 -0.4475 0.995 -0.985c0.045 -0.4 -0.4475 -1.075 -0.46 -1.3025z" fill="#FE6011" stroke-width="0.25"></path>
</svg>